<?xml version="1.0" standalone="no"?>
<!DOCTYPE svg PUBLIC "-//W3C//DTD SVG 20010904//EN"
 "http://www.w3.org/TR/2001/REC-SVG-20010904/DTD/svg10.dtd">
<svg version="1.0" xmlns="http://www.w3.org/2000/svg"
 width="96.000000pt" height="96.000000pt" viewBox="0 0 96.000000 96.000000"
 preserveAspectRatio="xMidYMid meet">

<g transform="translate(0.000000,96.000000) scale(0.100000,-0.100000)"
fill="#000000" stroke="none">
<path d="M300 950 c-154 -24 -232 -85 -272 -212 -21 -65 -23 -93 -23 -258 0
-166 2 -193 24 -260 32 -104 87 -159 191 -191 67 -22 94 -24 260 -24 166 0
193 2 260 24 104 32 159 87 191 191 22 67 24 94 24 260 0 166 -2 193 -24 260
-18 60 -32 84 -70 121 -70 70 -142 90 -346 94 -88 2 -185 0 -215 -5z m260
-282 c18 -13 40 -33 48 -45 13 -21 12 -23 -13 -33 -24 -9 -32 -7 -55 15 -48
46 -126 28 -118 -27 2 -18 18 -28 76 -49 86 -32 109 -50 117 -93 14 -71 -42
-126 -128 -126 -55 0 -96 18 -126 56 -27 34 -26 42 2 55 21 9 28 6 55 -21 27
-27 38 -31 73 -28 48 3 71 27 53 56 -6 9 -40 27 -75 40 -119 42 -154 119 -85
188 30 30 40 34 89 34 40 0 63 -6 87 -22z"/>
</g>
</svg>
